<svg width="64" height="64" viewBox="0 0 64 64" fill="none" xmlns="http://www.w3.org/2000/svg">
  <path d="M32 8C26.48 8 21.9 10.64 19.32 15C16.76 14.35 14 15 12 16.88 9 20 9.79 24.65 13.32 26.4 14.9 31.6 20.1 35 26 35H54C58.42 35 62 31.42 62 27C62 22.58 58.42 19 54 19H48C45.85 11.34 39.52 6 32 6V8Z" fill="url(#paint0_linear)"/>
  <path d="M19.49 52.88C19.26 51.57 18.22 50.59 16.87 50.59C15.42 50.59 14.17 51.72 14.17 53.16C14.17 54.61 15.42 55.73 16.87 55.73C18.05 55.73 19.09 54.86 19.32 53.65C19.41 53.2 19.48 52.83 19.49 52.88Z" fill="url(#paint0_linear)"/>
  <path d="M28.49 55.73C27.04 55.73 25.79 54.61 25.79 53.16C25.79 51.72 27.04 50.59 28.49 50.59C29.94 50.59 31.19 51.72 31.19 53.16C31.19 54.61 29.94 55.73 28.49 55.73Z" fill="url(#paint0_linear)"/>
  <path d="M38.49 50.59C37.04 50.59 35.79 51.72 35.79 53.16C35.79 54.61 37.04 55.73 38.49 55.73C39.94 55.73 41.19 54.61 41.19 53.16C41.19 51.72 39.94 50.59 38.49 50.59Z" fill="url(#paint0_linear)"/>
  <defs>
    <linearGradient id="paint0_linear" x1="8" y1="8" x2="64" y2="64" gradientUnits="userSpaceOnUse">
      <stop offset="0.259336" stop-color="#FFDB6E"/>
      <stop offset="1" stop-color="#FFBC5E"/>
    </linearGradient>
  </defs>
</svg>
